<!DOCTYPE svg PUBLIC "-//W3C//DTD SVG 20010904//EN" "http://www.w3.org/TR/2001/REC-SVG-20010904/DTD/svg10.dtd">
<svg version="1.0" xmlns="http://www.w3.org/2000/svg" width="900px" height="634px" viewBox="0 0 9000 6340" preserveAspectRatio="xMidYMid meet">
<g id="layer101" fill="#ffffff" stroke="none">
 <path d="M1972 6274 c-289 -48 -554 -182 -770 -388 -210 -201 -378 -457 -521 -797 -53 -124 -141 -371 -141 -394 0 -7 11 -10 28 -8 15 2 218 17 452 33 1054 74 1249 84 1550 85 l265 0 155 -42 c189 -51 504 -152 497 -160 -3 -3 -46 1 -94 8 -117 18 -366 18 -415 1 -65 -23 -143 -138 -202 -293 l-23 -63 -149 -37 c-823 -206 -1428 -682 -1677 -1319 -227 -580 -154 -1352 207 -2192 9 -21 20 -38 24 -38 4 0 21 19 37 41 103 141 433 388 855 641 654 394 1667 875 1945 925 341 61 495 127 562 240 25 42 28 58 27 128 0 72 -6 94 -52 212 -29 73 -52 147 -52 165 0 25 13 49 50 94 145 180 421 301 725 319 l100 5 60 -70 c95 -113 355 -370 470 -467 219 -182 388 -275 526 -289 187 -18 519 87 974 311 221 109 425 222 425 235 0 4 -55 22 -122 40 -412 111 -728 289 -884 497 -82 109 -103 156 -140 323 -139 633 -532 1117 -1139 1406 -427 203 -923 307 -1530 321 l-260 6 -70 47 c-361 243 -805 421 -1185 475 -130 18 -396 18 -508 -1z m4556 -3164 c42 -26 72 -76 72 -120 0 -131 -177 -189 -258 -85 -56 71 -29 182 53 216 37 14 99 10 133 -11z"/>
 <path d="M5116 3178 c-139 -26 -276 -129 -276 -208 0 -41 272 -537 443 -805 753 -1187 1601 -1907 2484 -2109 175 -40 319 -56 509 -56 145 0 176 2 180 15 13 33 -52 149 -431 770 -337 554 -399 660 -554 951 -167 314 -279 579 -316 746 l-17 77 -141 -51 c-228 -81 -436 -147 -519 -164 -92 -19 -149 -10 -247 36 -179 85 -369 237 -676 543 -132 132 -254 246 -272 253 -36 16 -94 16 -167 2z"/>
 </g>

</svg>